<svg width="138" height="138" viewBox="0 0 138 138" fill="none" xmlns="http://www.w3.org/2000/svg">
<rect width="138" height="138" fill="#032D4A"/>
<path d="M14.152 75.056C15.544 75.056 16.504 75.344 17.032 75.92C17.608 76.448 17.896 77.408 17.896 78.8V82.256C17.896 83.648 17.608 84.632 17.032 85.208C16.504 85.736 15.544 86 14.152 86H11.416C10.024 86 9.04 85.736 8.464 85.208C7.936 84.632 7.672 83.648 7.672 82.256V78.8C7.672 77.408 7.936 76.448 8.464 75.92C9.04 75.344 10.024 75.056 11.416 75.056H14.152ZM40.8741 36.176L40.0101 48.344L47.6421 57.632L42.9621 61.088L37.9221 52.376L32.8821 61.016L28.0581 57.56L35.8341 48.344L34.8981 36.176H40.8741ZM26.1861 41.936L34.5381 45.464L34.4661 48.056L33.1701 49.64L24.3141 47.552L26.1861 41.936ZM49.6581 41.936L51.4581 47.624L42.6741 49.64L41.3061 48.056L41.2341 45.464L49.6581 41.936ZM92.5071 36.32L64.2111 91.256H55.7151L84.0111 36.32H92.5071ZM110.926 49.496C115.054 49.496 118.318 49.88 120.718 50.648C123.166 51.416 124.918 52.616 125.974 54.248C127.078 55.88 127.63 58.064 127.63 60.8C127.63 63.44 127.102 65.6 126.046 67.28C124.99 68.912 123.214 70.112 120.718 70.88C118.27 71.648 114.982 72.032 110.854 72.032C106.726 72.032 103.414 71.648 100.918 70.88C98.4696 70.112 96.6936 68.912 95.5896 67.28C94.5336 65.648 94.0056 63.488 94.0056 60.8C94.0056 58.112 94.5336 55.952 95.5896 54.32C96.6936 52.64 98.4936 51.416 100.99 50.648C103.486 49.88 106.798 49.496 110.926 49.496ZM110.854 56.048C108.214 56.048 106.39 56.408 105.382 57.128C104.374 57.8 103.87 59.024 103.87 60.8C103.87 62.576 104.374 63.824 105.382 64.544C106.39 65.264 108.214 65.624 110.854 65.624C113.494 65.624 115.294 65.264 116.254 64.544C117.214 63.824 117.694 62.576 117.694 60.8C117.694 59.024 117.214 57.8 116.254 57.128C115.294 56.408 113.494 56.048 110.854 56.048ZM131.734 50.432L131.158 54.968L121.654 56.192L119.062 50.432H131.734ZM100.126 69.872L105.454 70.808C104.782 71.192 104.302 71.792 104.014 72.608C103.774 73.424 103.846 74.192 104.23 74.912C104.614 75.632 105.454 76.064 106.75 76.208L119.854 77.72C123.598 78.104 126.238 79.16 127.774 80.888C129.31 82.568 130.078 85.04 130.078 88.304C130.078 91.376 129.454 93.728 128.206 95.36C126.958 97.04 124.966 98.192 122.23 98.816C119.494 99.44 115.846 99.752 111.286 99.752C107.542 99.752 104.446 99.56 101.998 99.176C99.5976 98.84 97.6776 98.264 96.2376 97.448C94.8456 96.632 93.8616 95.552 93.2856 94.208C92.7576 92.912 92.4936 91.28 92.4936 89.312C92.4936 87.824 92.7576 86.552 93.2856 85.496C93.8136 84.392 94.7016 83.408 95.9496 82.544C97.2456 81.68 99.0456 80.888 101.35 80.168L106.606 78.296L110.422 79.808L107.542 81.68C106.342 82.544 105.358 83.288 104.59 83.912C103.87 84.488 103.342 85.064 103.006 85.64C102.718 86.216 102.574 86.984 102.574 87.944C102.574 89.048 102.814 89.888 103.294 90.464C103.774 91.088 104.638 91.496 105.886 91.688C107.182 91.928 108.934 92.048 111.142 92.048C113.446 92.048 115.246 91.928 116.542 91.688C117.838 91.496 118.726 91.112 119.206 90.536C119.734 89.96 119.998 89.144 119.998 88.088C119.998 87.176 119.806 86.504 119.422 86.072C119.086 85.64 118.486 85.328 117.622 85.136C116.806 84.896 115.654 84.68 114.166 84.488L103.006 83.264C101.134 83.072 99.6696 82.568 98.6136 81.752C97.5576 80.936 96.8136 79.952 96.3816 78.8C95.9976 77.6 95.9016 76.4 96.0936 75.2C96.2856 74 96.7176 72.92 97.3896 71.96C98.1096 71 99.0216 70.304 100.126 69.872Z" fill="#FA3A05"/>
</svg>
